<svg xmlns="http://www.w3.org/2000/svg" width="1024" height="1024" viewBox="0 0 1024 1024"><g transform="rotate(5 512 520)"><path d="M178 280 H846 A46 46 0 0 1 892 326 V734 A46 46 0 0 1 846 780 H178 A46 46 0 0 1 132 734 V326 A46 46 0 0 1 178 280 Z" fill="#FF5C8A"/><path d="M334 780 Q318 780 325.9 766.1 L352.1 719.9 Q360 706 376 706 L648 706 Q664 706 671.9 719.9 L698.1 766.1 Q706 780 690 780 Z" fill="#E23A6E"/><path d="M157 318 A13 13 0 1 0 183 318 A13 13 0 1 0 157 318 Z" fill="#E23A6E"/><path d="M841 318 A13 13 0 1 0 867 318 A13 13 0 1 0 841 318 Z" fill="#E23A6E"/><path d="M157 742 A13 13 0 1 0 183 742 A13 13 0 1 0 157 742 Z" fill="#E23A6E"/><path d="M841 742 A13 13 0 1 0 867 742 A13 13 0 1 0 841 742 Z" fill="#E23A6E"/></g></svg>
