<svg xmlns="http://www.w3.org/2000/svg" width="1024" height="1024" viewBox="0 0 1024 1024"><g stroke="#FF5CE1" stroke-width="9" opacity=".8" stroke-linecap="round"><line x1="512" y1="760" x2="-600" y2="1024"/><line x1="512" y1="760" x2="-430" y2="1024"/><line x1="512" y1="760" x2="-260" y2="1024"/><line x1="512" y1="760" x2="-90" y2="1024"/><line x1="512" y1="760" x2="80" y2="1024"/><line x1="512" y1="760" x2="250" y2="1024"/><line x1="512" y1="760" x2="420" y2="1024"/><line x1="512" y1="760" x2="590" y2="1024"/><line x1="512" y1="760" x2="760" y2="1024"/><line x1="512" y1="760" x2="930" y2="1024"/><line x1="512" y1="760" x2="1100" y2="1024"/><line x1="512" y1="760" x2="1270" y2="1024"/><line x1="512" y1="760" x2="1440" y2="1024"/><line x1="512" y1="760" x2="1610" y2="1024"/><line x1="0" y1="780" x2="1024" y2="780"/><line x1="0" y1="810" x2="1024" y2="810"/><line x1="0" y1="856" x2="1024" y2="856"/><line x1="0" y1="920" x2="1024" y2="920"/><line x1="0" y1="1000" x2="1024" y2="1000"/></g></svg>
